Coordinates
version=1
nRows=60
nColumns=12
inDegrees=yes

Units are S.I. units (second, meters, Newtons, ...)
Angles are in degrees

endheader
time	SC_y	SC_z	SC_x	AC_y	AC_z	AC_x	GH_y	GH_z	GH_yy	EL_x	PS_y
       0.0               -41.8          5.452          58.87          52.01          8.527          8.852         -52.46         -14.44          103.8          117.5          41.26
   0.01591               -41.8          5.453          58.87          52.01          8.525          8.848         -52.45         -14.44          103.8          117.5          41.27
   0.03181               -41.8          5.453          58.87          52.01          8.522          8.845         -52.43         -14.43          103.7          117.5          41.28
   0.04772               -41.8          5.454          58.87          52.01           8.52          8.842         -52.42         -14.42          103.7          117.5          41.29
   0.06362               -41.8          5.455          58.86          52.01          8.517          8.838          -52.4         -14.42          103.7          117.5           41.3
   0.07953               -41.8          5.455          58.86          52.01          8.514          8.834         -52.39         -14.41          103.7          117.5          41.31
   0.09543               -41.8          5.456          58.86          52.01          8.511          8.829         -52.37         -14.41          103.7          117.5          41.32
    0.1113               -41.8          5.457          58.85          52.01          8.507          8.825         -52.35          -14.4          103.7          117.4          41.33
    0.1272               -41.8          5.458          58.85          52.01          8.503           8.82         -52.33         -14.39          103.6          117.4          41.34
    0.1431               -41.8          5.459          58.84          52.01          8.499          8.814         -52.31         -14.38          103.6          117.4          41.35
    0.1591               -41.8           5.46          58.84           52.0          8.495          8.808         -52.28         -14.38          103.6          117.4          41.36
     0.175               -41.8          5.461          58.83           52.0          8.491          8.802         -52.26         -14.37          103.6          117.4          41.38
    0.1909              -41.79          5.463          58.83           52.0          8.486          8.796         -52.23         -14.36          103.6          117.4          41.39
    0.2068              -41.79          5.464          58.82           52.0           8.48          8.788          -52.2         -14.35          103.5          117.4          41.41
    0.2227              -41.79          5.465          58.82           52.0          8.475          8.781         -52.17         -14.34          103.5          117.4          41.43
    0.2386              -41.79          5.467          58.81           52.0          8.468          8.772         -52.14         -14.32          103.5          117.3          41.44
    0.2545              -41.79          5.469           58.8           52.0          8.461          8.763          -52.1         -14.31          103.4          117.3          41.47
    0.2704              -41.79          5.471           58.8           52.0          8.454          8.753         -52.06         -14.29          103.4          117.3          41.49
    0.2863              -41.78          5.473          58.79          51.99          8.446          8.742         -52.02         -14.28          103.3          117.3          41.51
    0.3022              -41.78          5.475          58.78          51.99          8.437           8.73         -51.97         -14.26          103.3          117.3          41.54
    0.3181              -41.78          5.477          58.77          51.99          8.427          8.717         -51.91         -14.24          103.2          117.2          41.57
     0.334              -41.78           5.48          58.76          51.99          8.417          8.702         -51.86         -14.22          103.2          117.2           41.6
    0.3499              -41.77          5.483          58.74          51.99          8.405          8.686         -51.79          -14.2          103.1          117.2          41.64
    0.3658              -41.77          5.486          58.73          51.98          8.392          8.669         -51.72         -14.17          103.1          117.1          41.68
    0.3817              -41.77           5.49          58.71          51.98          8.377          8.649         -51.64         -14.14          103.0          117.1          41.72
    0.3976              -41.76          5.494           58.7          51.98          8.361          8.627         -51.55         -14.11          102.9          117.0          41.77
    0.4135              -41.76          5.499          58.68          51.97          8.343          8.602         -51.45         -14.07          102.8          117.0          41.83
    0.4294              -41.76          5.504          58.65          51.97          8.322          8.575         -51.34         -14.03          102.7          116.9          41.89
    0.4453              -41.75           5.51          58.63          51.97          8.299          8.544         -51.21         -13.99          102.6          116.9          41.96
    0.4612              -41.74          5.517           58.6          51.96          8.273          8.508         -51.07         -13.93          102.4          116.8          42.05
    0.4772              -41.74          5.524          58.57          51.95          8.243          8.467         -50.91         -13.87          102.3          116.7          42.14
    0.4931              -41.73          5.533          58.53          51.95          8.208          8.421         -50.72         -13.81          102.1          116.6          42.24
     0.509              -41.72          5.543          58.49          51.94          8.169          8.367          -50.5         -13.73          101.9          116.5          42.37
    0.5249              -41.71          5.555          58.44          51.93          8.122          8.305         -50.25         -13.63          101.6          116.4          42.51
    0.5408              -41.69          5.568          58.38          51.92          8.068          8.232         -49.95         -13.53          101.3          116.2          42.67
    0.5567              -41.68          5.584          58.32          51.91          8.005          8.146         -49.61          -13.4          101.0          116.0          42.87
    0.5726              -41.66          5.604          58.23          51.89          7.929          8.044         -49.19         -13.25          100.6          115.8           43.1
    0.5885              -41.64          5.627          58.14          51.87          7.838          7.921          -48.7         -13.07          100.1          115.6          43.38
    0.6044              -41.61          5.654          58.02          51.85          7.728          7.773          -48.1         -12.85          99.51          115.2          43.72
    0.6203              -41.58          5.688          57.88          51.83          7.594          7.591         -47.37         -12.58           98.8          114.9          44.13
    0.6362              -41.54           5.73           57.7          51.79          7.429          7.368         -46.46         -12.26          97.91          114.4          44.64
    0.6521              -41.49          5.783          57.48          51.75          7.222          7.089         -45.34         -11.84          96.81          113.8          45.27
     0.668              -41.43          5.848           57.2           51.7          6.962          6.738         -43.92         -11.33          95.43          113.1          46.07
    0.6839              -41.35          5.932          56.85          51.64          6.632          6.291         -42.11         -10.67          93.66          112.1          47.08
    0.6998              -41.25          6.039           56.4          51.55          6.209           5.72          -39.8         -9.828          91.41          110.9          48.38
    0.7157              -41.13          6.177          55.82          51.44          5.666          4.986         -36.84         -8.748          88.51          109.4          50.05
    0.7316              -40.96          6.353          55.08          51.31          4.972          4.049         -33.05         -7.369          84.81          107.4          52.18
    0.7475              -40.75          6.574          54.14          51.14            4.1          2.871         -28.29         -5.634          80.16          105.0          54.86
    0.7634               -40.5          6.843          53.01          50.92          3.038          1.435         -22.49          -3.52          74.49          102.0          58.12
    0.7793              -40.21          7.155          51.69          50.68          1.806        -0.2287         -15.77          -1.07          67.92          98.49           61.9
    0.7953              -39.89          7.493          50.27          50.42         0.4724         -2.031         -8.484          1.583           60.8          94.71           66.0
    0.8112              -39.58          7.831          48.84          50.15        -0.8613         -3.832         -1.203          4.236          53.69          90.94           70.1
    0.8271              -39.28          8.143          47.53          49.91         -2.093         -5.497          5.522          6.686          47.12          87.45          73.88
     0.843              -39.03          8.412          46.39           49.7         -3.156         -6.932          11.32            8.8          41.45          84.45          77.14
    0.8589              -38.83          8.633          45.46          49.53         -4.028          -8.11          16.08          10.53           36.8          81.98          79.82
    0.8748              -38.66          8.808          44.72          49.39         -4.721         -9.047          19.87          11.91           33.1          80.02          81.95
    0.8907              -38.53          8.946          44.14          49.28         -5.264         -9.781          22.83          12.99           30.2          78.48          83.62
    0.9066              -38.43          9.053          43.69           49.2         -5.687         -10.35          25.14          13.84          27.94          77.28          84.92
    0.9225              -38.35          9.137          43.34          49.13         -6.018          -10.8          26.95          14.49          26.18          76.35          85.93
    0.9384              -38.29          9.203          43.06          49.08         -6.278         -11.15          28.37          15.01          24.79          75.61          86.73
